<svg preserveAspectRatio="none" width="100%" height="100%" overflow="visible" style="display: block;" viewBox="0 0 1440 254" fill="none" xmlns="http://www.w3.org/2000/svg">
<path id="Vector 3" d="M89.4946 169.909C22.6432 122.104 0 12.6712 0 12.6712V254H1440V0C1440 0 1435.15 18.4308 1415.2 52.4127C1395.25 86.3946 1386.63 87.5465 1359.13 111.161C1331.64 134.776 1241.6 165.878 1223.27 173.941C1204.94 182.005 1001.69 234.417 1001.69 234.417C1001.69 234.417 930.528 247.664 914.354 248.816C898.181 249.968 868.529 246.512 846.425 244.209C824.321 241.905 740.756 217.714 740.756 217.714L625.923 187.764C625.923 187.764 593.576 180.853 540.741 180.853C487.907 180.853 463.107 185.46 463.107 185.46C463.107 185.46 295.44 217.714 281.423 220.018C267.405 222.322 221.58 220.018 211.876 217.714C202.171 215.41 156.346 217.714 89.4946 169.909Z" fill="url(#paint0_linear_0_31)"/>
<defs>
<linearGradient id="paint0_linear_0_31" x1="0" y1="127" x2="1440" y2="127" gradientUnits="userSpaceOnUse">
<stop stop-color="#E7F3EF"/>
<stop offset="1" stop-color="#FCF5EA"/>
</linearGradient>
</defs>
</svg>
